<svg xmlns="http://www.w3.org/2000/svg" version="1.1" xmlns:xlink="http://www.w3.org/1999/xlink" xmlns:svgjs="http://svgjs.dev/svgjs" width="1440" height="560" preserveAspectRatio="none" viewBox="0 0 1440 560"><g mask="url(&quot;#SvgjsMask1050&quot;)" fill="none"><rect width="1440" height="560" x="0" y="0" fill="url(&quot;#SvgjsLinearGradient1051&quot;)"></rect><path d="M1440 0L850.85 0L1440 48.95z" fill="rgba(255, 255, 255, .1)"></path><path d="M850.85 0L1440 48.95L1440 263.65L519.58 0z" fill="rgba(255, 255, 255, .075)"></path><path d="M519.58 0L1440 263.65L1440 387.21999999999997L427.18000000000006 0z" fill="rgba(255, 255, 255, .05)"></path><path d="M427.18000000000006 0L1440 387.21999999999997L1440 436.02L187.77000000000007 0z" fill="rgba(255, 255, 255, .025)"></path><path d="M0 560L79.44 560L0 514.43z" fill="rgba(0, 0, 0, .1)"></path><path d="M0 514.43L79.44 560L681.46 560L0 486.94999999999993z" fill="rgba(0, 0, 0, .075)"></path><path d="M0 486.95L681.46 560L754.32 560L0 415.39z" fill="rgba(0, 0, 0, .05)"></path><path d="M0 415.39L754.32 560L1135.23 560L0 122.05000000000001z" fill="rgba(0, 0, 0, .025)"></path></g><defs><mask id="SvgjsMask1050"><rect width="1440" height="560" fill="#ffffff"></rect></mask><linearGradient x1="15.28%" y1="-39.29%" x2="84.72%" y2="139.29%" gradientUnits="userSpaceOnUse" id="SvgjsLinearGradient1051"><stop stop-color="#0e2a47" offset="0"></stop><stop stop-color="rgba(0, 151, 220, 1)" offset="1"></stop></linearGradient></defs></svg>